<?xml version="1.0" encoding="utf-8" standalone="no"?>
<!DOCTYPE svg PUBLIC "-//W3C//DTD SVG 1.1//EN"
  "http://www.w3.org/Graphics/SVG/1.1/DTD/svg11.dtd">
<svg xmlns:xlink="http://www.w3.org/1999/xlink" width="669.875795pt" height="274.722729pt" viewBox="0 0 669.875795 274.722729" xmlns="http://www.w3.org/2000/svg" version="1.1">
 <metadata>
  <rdf:RDF xmlns:dc="http://purl.org/dc/elements/1.1/" xmlns:cc="http://creativecommons.org/ns#" xmlns:rdf="http://www.w3.org/1999/02/22-rdf-syntax-ns#">
   <cc:Work>
    <dc:type rdf:resource="http://purl.org/dc/dcmitype/StillImage"/>
    <dc:date>2022-06-26T01:44:02.812762</dc:date>
    <dc:format>image/svg+xml</dc:format>
    <dc:creator>
     <cc:Agent>
      <dc:title>Matplotlib v3.5.0, https://matplotlib.org/</dc:title>
     </cc:Agent>
    </dc:creator>
   </cc:Work>
  </rdf:RDF>
 </metadata>
 <defs>
  <style type="text/css">*{stroke-linejoin: round; stroke-linecap: butt}</style>
 </defs>
 <g id="figure_1">
  <g id="patch_1">
   <path d="M 0 274.722729 
L 669.875795 274.722729 
L 669.875795 0 
L 0 0 
L 0 274.722729 
z
" style="fill: none"/>
  </g>
  <g id="axes_1">
   <g id="patch_2">
    <path d="M 100.563652 224.64 
L 658.563652 224.64 
L 658.563652 7.2 
L 100.563652 7.2 
z
" style="fill: #ffffff"/>
   </g>
   <g id="line2d_1">
    <path d="M 212.163652 224.64 
L 212.163652 50.688 
" clip-path="url(#p42cc66f12a)" style="fill: none; stroke: #d62728; stroke-linecap: square"/>
   </g>
   <g id="line2d_2">
    <path d="M 546.963652 224.64 
L 546.963652 137.664 
" clip-path="url(#p42cc66f12a)" style="fill: none; stroke: #d62728; stroke-linecap: square"/>
   </g>
   <g id="line2d_3">
    <path d="M 323.763652 224.64 
L 323.763652 181.152 
" clip-path="url(#p42cc66f12a)" style="fill: none; stroke: #1f77b4; stroke-linecap: square"/>
   </g>
   <g id="line2d_4">
    <path d="M 435.363652 224.64 
L 435.363652 94.176 
" clip-path="url(#p42cc66f12a)" style="fill: none; stroke: #1f77b4; stroke-linecap: square"/>
   </g>
   <g id="matplotlib.axis_1">
    <g id="xtick_1">
     <g id="line2d_5">
      <path d="M 100.563652 224.64 
L 100.563652 7.2 
" clip-path="url(#p42cc66f12a)" style="fill: none; stroke-dasharray: 1.25,2.0625; stroke-dashoffset: 0; stroke: #b0b0b0; stroke-width: 1.25"/>
     </g>
     <g id="line2d_6">
      <defs>
       <path id="m98ca79b489" d="M 0 0 
L 0 3.5 
" style="stroke: #000000; stroke-width: 0.8"/>
      </defs>
      <g>
       <use xlink:href="#m98ca79b489" x="100.563652" y="224.64" style="stroke: #000000; stroke-width: 0.8"/>
      </g>
     </g>
     <g id="text_1">
      <!-- $\mathdefault{0}$ -->
      <g transform="translate(96.451509 244.0933)scale(0.18 -0.18)">
       <defs>
        <path id="CMR17-30" d="M 2688 2038 
C 2688 2430 2682 3099 2413 3613 
C 2176 4063 1798 4224 1466 4224 
C 1158 4224 768 4082 525 3620 
C 269 3137 243 2539 243 2038 
C 243 1671 250 1112 448 623 
C 723 -39 1216 -128 1466 -128 
C 1760 -128 2208 -7 2470 604 
C 2662 1048 2688 1568 2688 2038 
z
M 1466 -26 
C 1056 -26 813 328 723 816 
C 653 1196 653 1749 653 2109 
C 653 2604 653 3015 736 3407 
C 858 3954 1216 4121 1466 4121 
C 1728 4121 2067 3947 2189 3420 
C 2272 3054 2278 2623 2278 2109 
C 2278 1691 2278 1176 2202 797 
C 2067 96 1690 -26 1466 -26 
z
" transform="scale(0.015625)"/>
       </defs>
       <use xlink:href="#CMR17-30" transform="scale(0.996264)"/>
      </g>
     </g>
    </g>
    <g id="xtick_2">
     <g id="line2d_7">
      <path d="M 212.163652 224.64 
L 212.163652 7.2 
" clip-path="url(#p42cc66f12a)" style="fill: none; stroke-dasharray: 1.25,2.0625; stroke-dashoffset: 0; stroke: #b0b0b0; stroke-width: 1.25"/>
     </g>
     <g id="line2d_8">
      <g>
       <use xlink:href="#m98ca79b489" x="212.163652" y="224.64" style="stroke: #000000; stroke-width: 0.8"/>
      </g>
     </g>
     <g id="text_2">
      <!-- $\mathdefault{1}$ -->
      <g transform="translate(208.051509 244.0933)scale(0.18 -0.18)">
       <defs>
        <path id="CMR17-31" d="M 1702 4083 
C 1702 4217 1696 4224 1606 4224 
C 1357 3927 979 3833 621 3820 
C 602 3820 570 3820 563 3808 
C 557 3795 557 3782 557 3648 
C 755 3648 1088 3686 1344 3839 
L 1344 467 
C 1344 243 1331 166 781 166 
L 589 166 
L 589 0 
C 896 6 1216 12 1523 12 
C 1830 12 2150 6 2458 0 
L 2458 166 
L 2266 166 
C 1715 166 1702 236 1702 467 
L 1702 4083 
z
" transform="scale(0.015625)"/>
       </defs>
       <use xlink:href="#CMR17-31" transform="scale(0.996264)"/>
      </g>
     </g>
    </g>
    <g id="xtick_3">
     <g id="line2d_9">
      <path d="M 323.763652 224.64 
L 323.763652 7.2 
" clip-path="url(#p42cc66f12a)" style="fill: none; stroke-dasharray: 1.25,2.0625; stroke-dashoffset: 0; stroke: #b0b0b0; stroke-width: 1.25"/>
     </g>
     <g id="line2d_10">
      <g>
       <use xlink:href="#m98ca79b489" x="323.763652" y="224.64" style="stroke: #000000; stroke-width: 0.8"/>
      </g>
     </g>
     <g id="text_3">
      <!-- $\mathdefault{2}$ -->
      <g transform="translate(319.651509 244.0933)scale(0.18 -0.18)">
       <defs>
        <path id="CMR17-32" d="M 2669 990 
L 2554 990 
C 2490 537 2438 460 2413 422 
C 2381 371 1920 371 1830 371 
L 602 371 
C 832 620 1280 1073 1824 1596 
C 2214 1966 2669 2400 2669 3033 
C 2669 3788 2067 4224 1395 4224 
C 691 4224 262 3603 262 3027 
C 262 2777 448 2745 525 2745 
C 589 2745 781 2783 781 3007 
C 781 3206 614 3264 525 3264 
C 486 3264 448 3257 422 3244 
C 544 3788 915 4057 1306 4057 
C 1862 4057 2227 3616 2227 3033 
C 2227 2477 1901 1998 1536 1583 
L 262 147 
L 262 0 
L 2515 0 
L 2669 990 
z
" transform="scale(0.015625)"/>
       </defs>
       <use xlink:href="#CMR17-32" transform="scale(0.996264)"/>
      </g>
     </g>
    </g>
    <g id="xtick_4">
     <g id="line2d_11">
      <path d="M 435.363652 224.64 
L 435.363652 7.2 
" clip-path="url(#p42cc66f12a)" style="fill: none; stroke-dasharray: 1.25,2.0625; stroke-dashoffset: 0; stroke: #b0b0b0; stroke-width: 1.25"/>
     </g>
     <g id="line2d_12">
      <g>
       <use xlink:href="#m98ca79b489" x="435.363652" y="224.64" style="stroke: #000000; stroke-width: 0.8"/>
      </g>
     </g>
     <g id="text_4">
      <!-- $\mathdefault{3}$ -->
      <g transform="translate(431.251509 244.0933)scale(0.18 -0.18)">
       <defs>
        <path id="CMR17-33" d="M 1414 2176 
C 1984 2176 2234 1673 2234 1094 
C 2234 322 1824 25 1453 25 
C 1114 25 563 193 390 691 
C 422 678 454 678 486 678 
C 640 678 755 780 755 947 
C 755 1132 614 1216 486 1216 
C 378 1216 211 1164 211 927 
C 211 335 787 -128 1466 -128 
C 2176 -128 2720 432 2720 1087 
C 2720 1718 2208 2176 1600 2246 
C 2086 2347 2554 2776 2554 3353 
C 2554 3856 2048 4224 1472 4224 
C 890 4224 378 3862 378 3347 
C 378 3123 544 3084 627 3084 
C 762 3084 877 3167 877 3334 
C 877 3500 762 3584 627 3584 
C 602 3584 570 3584 544 3571 
C 730 3999 1235 4076 1459 4076 
C 1683 4076 2106 3966 2106 3347 
C 2106 3167 2080 2851 1862 2574 
C 1670 2329 1453 2316 1242 2297 
C 1210 2297 1062 2284 1037 2284 
C 992 2278 966 2272 966 2227 
C 966 2182 973 2176 1101 2176 
L 1414 2176 
z
" transform="scale(0.015625)"/>
       </defs>
       <use xlink:href="#CMR17-33" transform="scale(0.996264)"/>
      </g>
     </g>
    </g>
    <g id="xtick_5">
     <g id="line2d_13">
      <path d="M 546.963652 224.64 
L 546.963652 7.2 
" clip-path="url(#p42cc66f12a)" style="fill: none; stroke-dasharray: 1.25,2.0625; stroke-dashoffset: 0; stroke: #b0b0b0; stroke-width: 1.25"/>
     </g>
     <g id="line2d_14">
      <g>
       <use xlink:href="#m98ca79b489" x="546.963652" y="224.64" style="stroke: #000000; stroke-width: 0.8"/>
      </g>
     </g>
     <g id="text_5">
      <!-- $\mathdefault{4}$ -->
      <g transform="translate(542.851509 244.0933)scale(0.18 -0.18)">
       <defs>
        <path id="CMR17-34" d="M 2150 4147 
C 2150 4281 2144 4288 2029 4288 
L 128 1254 
L 128 1088 
L 1779 1088 
L 1779 460 
C 1779 230 1766 166 1318 166 
L 1197 166 
L 1197 0 
C 1402 12 1747 12 1965 12 
C 2182 12 2528 12 2733 0 
L 2733 166 
L 2611 166 
C 2163 166 2150 230 2150 460 
L 2150 1088 
L 2803 1088 
L 2803 1254 
L 2150 1254 
L 2150 4147 
z
M 1798 3723 
L 1798 1254 
L 256 1254 
L 1798 3723 
z
" transform="scale(0.015625)"/>
       </defs>
       <use xlink:href="#CMR17-34" transform="scale(0.996264)"/>
      </g>
     </g>
    </g>
    <g id="xtick_6">
     <g id="line2d_15">
      <path d="M 658.563652 224.64 
L 658.563652 7.2 
" clip-path="url(#p42cc66f12a)" style="fill: none; stroke-dasharray: 1.25,2.0625; stroke-dashoffset: 0; stroke: #b0b0b0; stroke-width: 1.25"/>
     </g>
     <g id="line2d_16">
      <g>
       <use xlink:href="#m98ca79b489" x="658.563652" y="224.64" style="stroke: #000000; stroke-width: 0.8"/>
      </g>
     </g>
     <g id="text_6">
      <!-- $\mathdefault{5}$ -->
      <g transform="translate(654.451509 244.0933)scale(0.18 -0.18)">
       <defs>
        <path id="CMR17-35" d="M 730 3750 
C 794 3724 1056 3641 1325 3641 
C 1920 3641 2246 3961 2432 4140 
C 2432 4191 2432 4224 2394 4224 
C 2387 4224 2374 4224 2323 4198 
C 2099 4102 1837 4032 1517 4032 
C 1325 4032 1037 4055 723 4191 
C 653 4224 640 4224 634 4224 
C 602 4224 595 4217 595 4090 
L 595 2231 
C 595 2113 595 2080 659 2080 
C 691 2080 704 2093 736 2139 
C 941 2435 1222 2560 1542 2560 
C 1766 2560 2246 2415 2246 1293 
C 2246 1087 2246 716 2054 422 
C 1894 159 1645 25 1370 25 
C 947 25 518 319 403 812 
C 429 806 480 793 506 793 
C 589 793 749 838 749 1036 
C 749 1209 627 1280 506 1280 
C 358 1280 262 1190 262 1011 
C 262 454 704 -128 1382 -128 
C 2042 -128 2669 441 2669 1267 
C 2669 2054 2170 2662 1549 2662 
C 1222 2662 947 2540 730 2304 
L 730 3750 
z
" transform="scale(0.015625)"/>
       </defs>
       <use xlink:href="#CMR17-35" transform="scale(0.996264)"/>
      </g>
     </g>
    </g>
    <g id="text_7">
     <!-- \textbf{Time in Years} $\longrightarrow$ -->
     <g transform="translate(300.072832 264.034664)scale(0.18 -0.18)">
      <defs>
       <path id="CMBX12-54" d="M 4608 4358 
L 390 4358 
L 262 2833 
L 531 2833 
C 589 3535 640 4083 1562 4083 
L 2080 4083 
L 2080 275 
L 1114 275 
L 1114 0 
C 1626 12 2285 12 2502 12 
C 2893 12 3379 12 3891 0 
L 3891 275 
L 2925 275 
L 2925 4083 
L 3437 4083 
C 4358 4083 4410 3542 4467 2833 
L 4736 2833 
L 4608 4358 
z
" transform="scale(0.015625)"/>
       <path id="CMBX12-69" d="M 1427 4019 
C 1427 4281 1216 4480 966 4480 
C 704 4480 506 4262 506 4019 
C 506 3775 704 3558 966 3558 
C 1216 3558 1427 3756 1427 4019 
z
M 301 2828 
L 301 2553 
C 678 2553 723 2553 723 2303 
L 723 275 
L 282 275 
L 282 0 
C 429 12 870 12 1043 12 
C 1222 12 1632 12 1786 0 
L 1786 275 
L 1389 275 
L 1389 2880 
L 301 2828 
z
" transform="scale(0.015625)"/>
       <path id="CMBX12-6d" d="M 5402 1958 
C 5402 2547 5152 2880 4435 2880 
C 3789 2880 3488 2444 3386 2240 
C 3283 2783 2848 2880 2438 2880 
C 1824 2880 1491 2483 1357 2176 
L 1350 2176 
L 1350 2880 
L 269 2828 
L 269 2553 
C 666 2553 710 2553 710 2304 
L 710 275 
L 269 275 
L 269 0 
C 416 12 877 12 1056 12 
C 1235 12 1702 12 1850 0 
L 1850 275 
L 1408 275 
L 1408 1638 
C 1408 2336 1926 2668 2330 2668 
C 2566 2668 2707 2528 2707 2028 
L 2707 275 
L 2266 275 
L 2266 0 
C 2413 12 2874 12 3053 12 
C 3232 12 3699 12 3846 0 
L 3846 275 
L 3405 275 
L 3405 1638 
C 3405 2336 3923 2668 4326 2668 
C 4563 2668 4704 2528 4704 2028 
L 4704 275 
L 4262 275 
L 4262 0 
C 4410 12 4870 12 5050 12 
C 5229 12 5696 12 5843 0 
L 5843 275 
L 5402 275 
L 5402 1958 
z
" transform="scale(0.015625)"/>
       <path id="CMBX12-65" d="M 2893 1408 
C 3040 1408 3078 1408 3078 1568 
C 3078 1758 3034 2232 2739 2529 
C 2470 2796 2112 2880 1741 2880 
C 742 2880 198 2232 198 1433 
C 198 523 858 -64 1824 -64 
C 2790 -64 3078 621 3078 731 
C 3078 829 2982 829 2944 829 
C 2842 829 2835 809 2797 725 
C 2630 302 2208 166 1901 166 
C 973 166 966 1043 966 1408 
L 2893 1408 
z
M 966 1593 
C 979 1852 986 2099 1120 2327 
C 1242 2529 1466 2668 1741 2668 
C 2426 2668 2483 1909 2490 1593 
L 966 1593 
z
" transform="scale(0.015625)"/>
       <path id="CMBX12-6e" d="M 3398 1958 
C 3398 2566 3136 2880 2432 2880 
C 1971 2880 1574 2656 1357 2176 
L 1350 2176 
L 1350 2880 
L 269 2828 
L 269 2553 
C 666 2553 710 2553 710 2304 
L 710 275 
L 269 275 
L 269 0 
C 416 12 877 12 1056 12 
C 1235 12 1702 12 1850 0 
L 1850 275 
L 1408 275 
L 1408 1638 
C 1408 2329 1920 2668 2330 2668 
C 2566 2668 2701 2515 2701 2028 
L 2701 275 
L 2259 275 
L 2259 0 
C 2406 12 2867 12 3046 12 
C 3226 12 3693 12 3840 0 
L 3840 275 
L 3398 275 
L 3398 1958 
z
" transform="scale(0.015625)"/>
       <path id="CMBX12-59" d="M 4627 3998 
C 4685 4082 4723 4140 5210 4140 
L 5331 4140 
L 5331 4416 
C 5152 4403 4800 4403 4608 4403 
C 4429 4403 3968 4403 3821 4416 
L 3821 4140 
C 3981 4140 4147 4140 4307 4069 
L 4262 3992 
L 3034 2156 
L 1702 4140 
L 2240 4140 
L 2240 4416 
C 2035 4403 1382 4403 1139 4403 
C 922 4403 275 4403 102 4416 
L 102 4140 
L 717 4140 
L 2310 1763 
L 2310 275 
L 1632 275 
L 1632 0 
C 1818 12 2490 12 2720 12 
C 2963 12 3603 12 3808 0 
L 3808 275 
L 3123 275 
L 3123 1763 
L 4627 3998 
z
" transform="scale(0.015625)"/>
       <path id="CMBX12-61" d="M 2944 1894 
C 2944 2483 2477 2880 1574 2880 
C 1216 2880 461 2847 461 2310 
C 461 2041 666 1926 838 1926 
C 1030 1926 1216 2060 1216 2303 
C 1216 2425 1171 2540 1062 2611 
C 1274 2668 1427 2668 1549 2668 
C 1984 2668 2246 2425 2246 1900 
L 2246 1644 
C 1235 1644 218 1362 218 648 
C 218 64 960 -64 1402 -64 
C 1894 -64 2208 205 2336 488 
C 2336 250 2336 -26 2982 -26 
L 3309 -26 
C 3443 -26 3494 -26 3494 115 
C 3494 250 3437 250 3347 250 
C 2944 256 2944 359 2944 507 
L 2944 1894 
z
M 2246 867 
C 2246 262 1709 147 1504 147 
C 1190 147 928 359 928 655 
C 928 1240 1619 1439 2246 1472 
L 2246 867 
z
" transform="scale(0.015625)"/>
       <path id="CMBX12-72" d="M 1331 1440 
C 1331 1651 1376 2668 2125 2668 
C 2035 2598 1990 2489 1990 2374 
C 1990 2112 2202 2003 2362 2003 
C 2522 2003 2733 2112 2733 2374 
C 2733 2700 2400 2880 2093 2880 
C 1587 2880 1370 2438 1280 2169 
L 1274 2169 
L 1274 2880 
L 224 2828 
L 224 2553 
C 621 2553 666 2553 666 2304 
L 666 275 
L 224 275 
L 224 0 
C 371 12 851 12 1030 12 
C 1216 12 1734 12 1888 0 
L 1888 275 
L 1331 275 
L 1331 1440 
z
" transform="scale(0.015625)"/>
       <path id="CMBX12-73" d="M 2413 2713 
C 2413 2835 2413 2880 2317 2880 
C 2278 2880 2266 2880 2170 2822 
C 2144 2803 2074 2758 2042 2739 
C 1862 2841 1626 2880 1395 2880 
C 1203 2880 243 2880 243 2046 
C 243 1372 1037 1231 1235 1199 
C 1408 1167 1619 1128 1645 1128 
C 1901 1071 2157 910 2157 641 
C 2157 147 1574 147 1440 147 
C 1114 147 710 249 531 872 
C 493 1000 486 1006 378 1006 
C 243 1006 243 987 243 840 
L 243 102 
C 243 -20 243 -64 339 -64 
C 384 -64 397 -64 525 38 
L 691 160 
C 979 -64 1325 -64 1440 -64 
C 1792 -64 2592 12 2592 865 
C 2592 1173 2426 1385 2298 1500 
C 2035 1719 1818 1757 1472 1821 
C 1062 1892 678 1962 678 2270 
C 678 2687 1248 2687 1382 2687 
C 2093 2687 2131 2238 2144 2078 
C 2150 1995 2202 1995 2278 1995 
C 2413 1995 2413 2014 2413 2161 
L 2413 2713 
z
" transform="scale(0.015625)"/>
       <path id="CMSY10-0" d="M 4218 1472 
C 4326 1472 4442 1472 4442 1600 
C 4442 1728 4326 1728 4218 1728 
L 755 1728 
C 646 1728 531 1728 531 1600 
C 531 1472 646 1472 755 1472 
L 4218 1472 
z
" transform="scale(0.015625)"/>
       <path id="CMSY10-21" d="M 5338 1472 
C 4986 1203 4813 940 4762 857 
C 4474 415 4422 12 4422 6 
C 4422 -71 4499 -71 4550 -71 
C 4659 -71 4666 -58 4691 57 
C 4838 684 5216 1222 5939 1516 
C 6016 1542 6035 1555 6035 1600 
C 6035 1644 5997 1664 5984 1670 
C 5702 1779 4928 2099 4685 3174 
C 4666 3251 4659 3270 4550 3270 
C 4499 3270 4422 3270 4422 3193 
C 4422 3180 4480 2777 4749 2348 
C 4877 2156 5062 1932 5338 1728 
L 582 1728 
C 467 1728 352 1728 352 1600 
C 352 1472 467 1472 582 1472 
L 5338 1472 
z
" transform="scale(0.015625)"/>
      </defs>
      <use xlink:href="#CMBX12-54" transform="scale(0.996264)"/>
      <use xlink:href="#CMBX12-69" transform="translate(77.94837 0)scale(0.996264)"/>
      <use xlink:href="#CMBX12-6d" transform="translate(109.081621 0)scale(0.996264)"/>
      <use xlink:href="#CMBX12-65" transform="translate(202.481372 0)scale(0.996264)"/>
      <use xlink:href="#CMBX12-69" transform="translate(290.980539 0)scale(0.996264)"/>
      <use xlink:href="#CMBX12-6e" transform="translate(322.11379 0)scale(0.996264)"/>
      <use xlink:href="#CMBX12-59" transform="translate(421.740191 0)scale(0.996264)"/>
      <use xlink:href="#CMBX12-65" transform="translate(497.03661 0)scale(0.996264)"/>
      <use xlink:href="#CMBX12-61" transform="translate(548.175877 0)scale(0.996264)"/>
      <use xlink:href="#CMBX12-72" transform="translate(602.659065 0)scale(0.996264)"/>
      <use xlink:href="#CMBX12-73" transform="translate(648.436573 0)scale(0.996264)"/>
      <use xlink:href="#CMSY10-0" transform="translate(722.721876 0)scale(0.996264)"/>
      <use xlink:href="#CMSY10-21" transform="translate(783.604939 0)scale(0.996264)"/>
     </g>
    </g>
   </g>
   <g id="matplotlib.axis_2">
    <g id="ytick_1">
     <g id="line2d_17">
      <path d="M 100.563652 181.152 
L 658.563652 181.152 
" clip-path="url(#p42cc66f12a)" style="fill: none; stroke-dasharray: 1.25,2.0625; stroke-dashoffset: 0; stroke: #b0b0b0; stroke-width: 1.25"/>
     </g>
     <g id="line2d_18">
      <defs>
       <path id="ma387f6fd43" d="M 0 0 
L -3.5 0 
" style="stroke: #000000; stroke-width: 0.8"/>
      </defs>
      <g>
       <use xlink:href="#ma387f6fd43" x="100.563652" y="181.152" style="stroke: #000000; stroke-width: 0.8"/>
      </g>
     </g>
     <g id="text_8">
      <!-- \textbf{Patient D} -->
      <g style="fill: #1f77b4" transform="translate(7.2 187.37865)scale(0.18 -0.18)">
       <defs>
        <path id="CMBX12-50" d="M 1766 1984 
L 2854 1984 
C 3923 1984 4518 2527 4518 3184 
C 4518 3872 3910 4416 2854 4416 
L 243 4416 
L 243 4140 
L 922 4140 
L 922 275 
L 243 275 
L 243 0 
C 429 12 1114 12 1344 12 
C 1574 12 2259 12 2445 0 
L 2445 275 
L 1766 275 
L 1766 1984 
z
M 2624 4140 
C 3616 4140 3616 3617 3616 3184 
C 3616 2763 3616 2227 2624 2227 
L 1734 2227 
L 1734 4140 
L 2624 4140 
z
" transform="scale(0.015625)"/>
        <path id="CMBX12-74" d="M 1350 2540 
L 2272 2540 
L 2272 2816 
L 1350 2816 
L 1350 4032 
L 1082 4032 
C 1075 3401 768 2771 134 2751 
L 134 2540 
L 653 2540 
L 653 761 
C 653 83 1178 -64 1638 -64 
C 2112 -64 2394 294 2394 768 
L 2394 1107 
L 2125 1107 
L 2125 774 
C 2125 352 1933 166 1734 166 
C 1350 166 1350 595 1350 742 
L 1350 2540 
z
" transform="scale(0.015625)"/>
        <path id="CMBX12-44" d="M 243 4416 
L 243 4140 
L 922 4140 
L 922 275 
L 243 275 
L 243 0 
L 2938 0 
C 4166 0 5114 790 5114 2169 
C 5114 3625 4141 4416 2938 4416 
L 243 4416 
z
M 1734 275 
L 1734 4140 
L 2694 4140 
C 3251 4140 3699 3921 3936 3586 
C 4122 3322 4243 3006 4243 2175 
C 4243 1421 4147 1086 3923 784 
C 3699 487 3270 275 2694 275 
L 1734 275 
z
" transform="scale(0.015625)"/>
       </defs>
       <use xlink:href="#CMBX12-50" transform="scale(0.996264)"/>
       <use xlink:href="#CMBX12-61" transform="translate(73.451486 0)scale(0.996264)"/>
       <use xlink:href="#CMBX12-74" transform="translate(127.934674 0)scale(0.996264)"/>
       <use xlink:href="#CMBX12-69" transform="translate(171.521224 0)scale(0.996264)"/>
       <use xlink:href="#CMBX12-65" transform="translate(202.654474 0)scale(0.996264)"/>
       <use xlink:href="#CMBX12-6e" transform="translate(253.793742 0)scale(0.996264)"/>
       <use xlink:href="#CMBX12-74" transform="translate(312.946917 0)scale(0.996264)"/>
       <use xlink:href="#CMBX12-44" transform="translate(393.893368 0)scale(0.996264)"/>
      </g>
     </g>
    </g>
    <g id="ytick_2">
     <g id="line2d_19">
      <path d="M 100.563652 137.664 
L 658.563652 137.664 
" clip-path="url(#p42cc66f12a)" style="fill: none; stroke-dasharray: 1.25,2.0625; stroke-dashoffset: 0; stroke: #b0b0b0; stroke-width: 1.25"/>
     </g>
     <g id="line2d_20">
      <g>
       <use xlink:href="#ma387f6fd43" x="100.563652" y="137.664" style="stroke: #000000; stroke-width: 0.8"/>
      </g>
     </g>
     <g id="text_9">
      <!-- \textbf{Patient C} -->
      <g style="fill: #d62728" transform="translate(8.092497 143.89065)scale(0.18 -0.18)">
       <defs>
        <path id="CMBX12-43" d="M 4794 4313 
C 4794 4460 4794 4480 4653 4480 
L 4173 4018 
C 3814 4326 3386 4480 2912 4480 
C 1382 4480 397 3548 397 2210 
C 397 896 1350 -64 2918 -64 
C 4058 -64 4794 722 4794 1484 
C 4794 1593 4755 1600 4659 1600 
C 4595 1600 4531 1600 4525 1529 
C 4467 547 3642 211 3066 211 
C 2650 211 2086 327 1728 734 
C 1504 980 1299 1336 1299 2210 
C 1299 2828 1395 3297 1696 3658 
C 2106 4140 2746 4204 3053 4204 
C 3533 4204 4307 3934 4499 2803 
C 4512 2745 4570 2745 4646 2745 
C 4794 2745 4794 2758 4794 2912 
L 4794 4313 
z
" transform="scale(0.015625)"/>
       </defs>
       <use xlink:href="#CMBX12-50" transform="scale(0.996264)"/>
       <use xlink:href="#CMBX12-61" transform="translate(73.451486 0)scale(0.996264)"/>
       <use xlink:href="#CMBX12-74" transform="translate(127.934674 0)scale(0.996264)"/>
       <use xlink:href="#CMBX12-69" transform="translate(171.521224 0)scale(0.996264)"/>
       <use xlink:href="#CMBX12-65" transform="translate(202.654474 0)scale(0.996264)"/>
       <use xlink:href="#CMBX12-6e" transform="translate(253.793742 0)scale(0.996264)"/>
       <use xlink:href="#CMBX12-74" transform="translate(312.946917 0)scale(0.996264)"/>
       <use xlink:href="#CMBX12-43" transform="translate(393.893368 0)scale(0.996264)"/>
      </g>
     </g>
    </g>
    <g id="ytick_3">
     <g id="line2d_21">
      <path d="M 100.563652 94.176 
L 658.563652 94.176 
" clip-path="url(#p42cc66f12a)" style="fill: none; stroke-dasharray: 1.25,2.0625; stroke-dashoffset: 0; stroke: #b0b0b0; stroke-width: 1.25"/>
     </g>
     <g id="line2d_22">
      <g>
       <use xlink:href="#ma387f6fd43" x="100.563652" y="94.176" style="stroke: #000000; stroke-width: 0.8"/>
      </g>
     </g>
     <g id="text_10">
      <!-- \textbf{Patient B} -->
      <g style="fill: #1f77b4" transform="translate(8.320797 100.40265)scale(0.18 -0.18)">
       <defs>
        <path id="CMBX12-42" d="M 250 4416 
L 250 4140 
L 928 4140 
L 928 275 
L 250 275 
L 250 0 
L 3142 0 
C 4198 0 4717 569 4717 1184 
C 4717 1792 4186 2233 3411 2291 
C 4333 2465 4512 2997 4512 3303 
C 4512 3900 3974 4416 2950 4416 
L 250 4416 
z
M 1715 2387 
L 1715 4140 
L 2874 4140 
C 3533 4140 3667 3634 3667 3309 
C 3667 2854 3418 2387 2669 2387 
L 1715 2387 
z
M 1715 275 
L 1715 2176 
L 2989 2176 
C 3738 2176 3846 1484 3846 1196 
C 3846 793 3629 275 2893 275 
L 1715 275 
z
" transform="scale(0.015625)"/>
       </defs>
       <use xlink:href="#CMBX12-50" transform="scale(0.996264)"/>
       <use xlink:href="#CMBX12-61" transform="translate(73.451486 0)scale(0.996264)"/>
       <use xlink:href="#CMBX12-74" transform="translate(127.934674 0)scale(0.996264)"/>
       <use xlink:href="#CMBX12-69" transform="translate(171.521224 0)scale(0.996264)"/>
       <use xlink:href="#CMBX12-65" transform="translate(202.654474 0)scale(0.996264)"/>
       <use xlink:href="#CMBX12-6e" transform="translate(253.793742 0)scale(0.996264)"/>
       <use xlink:href="#CMBX12-74" transform="translate(312.946917 0)scale(0.996264)"/>
       <use xlink:href="#CMBX12-42" transform="translate(393.893368 0)scale(0.996264)"/>
      </g>
     </g>
    </g>
    <g id="ytick_4">
     <g id="line2d_23">
      <path d="M 100.563652 50.688 
L 658.563652 50.688 
" clip-path="url(#p42cc66f12a)" style="fill: none; stroke-dasharray: 1.25,2.0625; stroke-dashoffset: 0; stroke: #b0b0b0; stroke-width: 1.25"/>
     </g>
     <g id="line2d_24">
      <g>
       <use xlink:href="#ma387f6fd43" x="100.563652" y="50.688" style="stroke: #000000; stroke-width: 0.8"/>
      </g>
     </g>
     <g id="text_11">
      <!-- \textbf{Patient A} -->
      <g style="fill: #d62728" transform="translate(7.428316 56.91465)scale(0.18 -0.18)">
       <defs>
        <path id="CMBX12-41" d="M 2931 4333 
C 2886 4448 2874 4480 2720 4480 
C 2560 4480 2547 4448 2502 4333 
L 915 429 
C 870 326 870 313 691 294 
C 531 275 506 275 365 275 
L 250 275 
L 250 0 
C 416 12 800 12 986 12 
C 1158 12 1626 12 1773 0 
L 1773 275 
C 1632 275 1389 275 1210 346 
C 1229 404 1229 416 1242 442 
L 1581 1280 
L 3296 1280 
L 3699 275 
L 3098 275 
L 3098 0 
C 3302 12 3923 12 4166 12 
C 4371 12 5024 12 5184 0 
L 5184 275 
L 4576 275 
L 2931 4333 
z
M 2438 3394 
L 3181 1555 
L 1690 1555 
L 2438 3394 
z
" transform="scale(0.015625)"/>
       </defs>
       <use xlink:href="#CMBX12-50" transform="scale(0.996264)"/>
       <use xlink:href="#CMBX12-61" transform="translate(73.451486 0)scale(0.996264)"/>
       <use xlink:href="#CMBX12-74" transform="translate(127.934674 0)scale(0.996264)"/>
       <use xlink:href="#CMBX12-69" transform="translate(171.521224 0)scale(0.996264)"/>
       <use xlink:href="#CMBX12-65" transform="translate(202.654474 0)scale(0.996264)"/>
       <use xlink:href="#CMBX12-6e" transform="translate(253.793742 0)scale(0.996264)"/>
       <use xlink:href="#CMBX12-74" transform="translate(312.946917 0)scale(0.996264)"/>
       <use xlink:href="#CMBX12-41" transform="translate(393.893368 0)scale(0.996264)"/>
      </g>
     </g>
    </g>
   </g>
   <g id="line2d_25">
    <path d="M 100.563652 181.152 
L 212.163652 181.152 
" clip-path="url(#p42cc66f12a)" style="fill: none; stroke-dasharray: 9.25,4; stroke-dashoffset: 0; stroke: #000000; stroke-width: 2.5"/>
   </g>
   <g id="line2d_26">
    <path d="M 100.563652 50.688 
L 212.163652 50.688 
" clip-path="url(#p42cc66f12a)" style="fill: none; stroke: #d62728; stroke-width: 3; stroke-linecap: square"/>
   </g>
   <g id="line2d_27">
    <path d="M 100.563652 137.664 
L 546.963652 137.664 
" clip-path="url(#p42cc66f12a)" style="fill: none; stroke: #d62728; stroke-width: 3; stroke-linecap: square"/>
   </g>
   <g id="line2d_28">
    <path d="M 100.563652 181.152 
L 323.763652 181.152 
" clip-path="url(#p42cc66f12a)" style="fill: none; stroke: #1f77b4; stroke-width: 3; stroke-linecap: square"/>
   </g>
   <g id="line2d_29">
    <path d="M 100.563652 94.176 
L 435.363652 94.176 
" clip-path="url(#p42cc66f12a)" style="fill: none; stroke: #1f77b4; stroke-width: 3; stroke-linecap: square"/>
   </g>
   <g id="patch_3">
    <path d="M 100.563652 224.64 
L 100.563652 7.2 
" style="fill: none; stroke: #000000; stroke-width: 0.8; stroke-linejoin: miter; stroke-linecap: square"/>
   </g>
   <g id="patch_4">
    <path d="M 658.563652 224.64 
L 658.563652 7.2 
" style="fill: none; stroke: #000000; stroke-width: 0.8; stroke-linejoin: miter; stroke-linecap: square"/>
   </g>
   <g id="patch_5">
    <path d="M 100.563652 224.64 
L 658.563652 224.64 
" style="fill: none; stroke: #000000; stroke-width: 0.8; stroke-linejoin: miter; stroke-linecap: square"/>
   </g>
   <g id="patch_6">
    <path d="M 100.563652 7.2 
L 658.563652 7.2 
" style="fill: none; stroke: #000000; stroke-width: 0.8; stroke-linejoin: miter; stroke-linecap: square"/>
   </g>
   <g id="text_12">
    <!-- $T^{*}=\textbf{1 year}$ -->
    <g style="fill: #d62728" transform="translate(189.843652 34.38)scale(0.21 -0.21)">
     <defs>
      <path id="CMMI12-54" d="M 2669 3886 
C 2707 4038 2720 4096 2816 4121 
C 2867 4134 3078 4134 3213 4134 
C 3853 4134 4154 4109 4154 3612 
C 4154 3516 4128 3274 4090 3038 
L 4083 2962 
C 4083 2937 4109 2898 4147 2898 
C 4211 2898 4211 2930 4230 3032 
L 4416 4159 
C 4429 4217 4429 4230 4429 4249 
C 4429 4319 4390 4319 4262 4319 
L 762 4319 
C 614 4319 608 4313 570 4198 
L 179 3051 
C 173 3038 154 2968 154 2962 
C 154 2930 179 2898 218 2898 
C 269 2898 282 2924 307 3007 
C 576 3777 710 4134 1562 4134 
L 1990 4134 
C 2144 4134 2208 4134 2208 4064 
C 2208 4045 2208 4032 2176 3917 
L 1318 497 
C 1254 249 1242 185 563 185 
C 403 185 358 185 358 64 
C 358 0 429 0 461 0 
C 621 0 787 12 947 12 
L 1946 12 
C 2106 12 2278 0 2438 0 
C 2509 0 2573 0 2573 121 
C 2573 185 2528 185 2362 185 
C 1786 185 1786 242 1786 338 
C 1786 344 1786 389 1811 491 
L 2669 3886 
z
" transform="scale(0.015625)"/>
      <path id="CMSY10-3" d="M 1760 2762 
C 1766 2853 1766 3008 1600 3008 
C 1498 3008 1414 2924 1434 2840 
L 1434 2755 
L 1523 1740 
L 704 2349 
C 646 2382 634 2395 589 2395 
C 499 2395 416 2303 416 2212 
C 416 2107 480 2081 544 2048 
L 1453 1603 
L 570 1164 
C 467 1112 416 1085 416 987 
C 416 889 499 804 589 804 
C 634 804 646 804 806 928 
L 1523 1459 
L 1427 359 
C 1427 224 1542 192 1594 192 
C 1670 192 1766 236 1766 359 
L 1670 1459 
L 2490 850 
C 2547 817 2560 804 2605 804 
C 2694 804 2778 896 2778 987 
C 2778 1085 2720 1118 2643 1157 
C 2259 1354 2246 1354 1741 1596 
L 2624 2035 
C 2726 2087 2778 2113 2778 2212 
C 2778 2310 2694 2395 2605 2395 
C 2560 2395 2547 2395 2387 2271 
L 1670 1740 
L 1760 2762 
z
" transform="scale(0.015625)"/>
      <path id="CMR17-3d" d="M 4115 2048 
C 4211 2048 4307 2048 4307 2156 
C 4307 2272 4198 2272 4090 2272 
L 512 2272 
C 403 2272 294 2272 294 2156 
C 294 2048 390 2048 486 2048 
L 4115 2048 
z
M 4090 927 
C 4198 927 4307 927 4307 1043 
C 4307 1152 4211 1152 4115 1152 
L 486 1152 
C 390 1152 294 1152 294 1043 
C 294 927 403 927 512 927 
L 4090 927 
z
" transform="scale(0.015625)"/>
      <path id="CMBX12-31" d="M 2214 4034 
C 2214 4224 2202 4224 1997 4224 
C 1523 3795 813 3795 672 3795 
L 550 3795 
L 550 3520 
L 672 3520 
C 896 3520 1235 3558 1491 3641 
L 1491 275 
L 602 275 
L 602 0 
C 870 12 1542 12 1843 12 
C 2144 12 2822 12 3091 0 
L 3091 275 
L 2214 275 
L 2214 4034 
z
" transform="scale(0.015625)"/>
      <path id="CMBX12-79" d="M 3168 2400 
C 3206 2489 3232 2540 3642 2540 
L 3642 2816 
C 3424 2803 3398 2803 3136 2803 
C 2963 2803 2950 2803 2586 2816 
L 2586 2540 
C 2592 2540 2893 2540 2893 2457 
C 2893 2438 2874 2400 2867 2381 
L 2118 780 
L 1299 2540 
L 1651 2540 
L 1651 2816 
C 1498 2803 1062 2803 883 2803 
C 698 2803 320 2803 154 2816 
L 154 2540 
L 563 2540 
L 1747 -8 
C 1715 -84 1626 -269 1594 -345 
C 1459 -631 1254 -1069 806 -1069 
C 781 -1069 704 -1069 634 -1031 
C 646 -1025 838 -949 838 -707 
C 838 -497 685 -364 493 -364 
C 294 -364 141 -497 141 -713 
C 141 -1012 422 -1280 806 -1280 
C 1331 -1280 1677 -809 1805 -529 
L 3168 2400 
z
" transform="scale(0.015625)"/>
     </defs>
     <use xlink:href="#CMMI12-54" transform="scale(0.996264)"/>
     <use xlink:href="#CMSY10-3" transform="translate(70.723632 36.153639)scale(0.697382)"/>
     <use xlink:href="#CMR17-3d" transform="translate(133.764983 0)scale(0.996264)"/>
     <use xlink:href="#CMBX12-31" transform="translate(233.15378 0)scale(0.996264)"/>
     <use xlink:href="#CMBX12-79" transform="translate(326.553531 0)scale(0.996264)"/>
     <use xlink:href="#CMBX12-65" transform="translate(382.593382 0)scale(0.996264)"/>
     <use xlink:href="#CMBX12-61" transform="translate(433.732649 0)scale(0.996264)"/>
     <use xlink:href="#CMBX12-72" transform="translate(488.215837 0)scale(0.996264)"/>
    </g>
   </g>
   <g id="text_13">
    <!-- $T^{*}=\textbf{4 years}$ -->
    <g style="fill: #d62728" transform="translate(524.643652 121.356)scale(0.21 -0.21)">
     <defs>
      <path id="CMBX12-34" d="M 2771 1004 
L 3392 1004 
L 3392 1280 
L 2771 1280 
L 2771 4038 
C 2771 4198 2765 4224 2605 4224 
C 2490 4224 2477 4224 2400 4127 
L 198 1280 
L 198 1004 
L 2016 1004 
L 2016 275 
L 1318 275 
L 1318 0 
C 1504 12 2138 12 2368 12 
C 2586 12 3219 12 3392 0 
L 3392 275 
L 2771 275 
L 2771 1004 
z
M 2074 3324 
L 2074 1280 
L 493 1280 
L 2074 3324 
z
" transform="scale(0.015625)"/>
     </defs>
     <use xlink:href="#CMMI12-54" transform="scale(0.996264)"/>
     <use xlink:href="#CMSY10-3" transform="translate(70.723632 36.153639)scale(0.697382)"/>
     <use xlink:href="#CMR17-3d" transform="translate(133.764983 0)scale(0.996264)"/>
     <use xlink:href="#CMBX12-34" transform="translate(233.15378 0)scale(0.996264)"/>
     <use xlink:href="#CMBX12-79" transform="translate(326.553531 0)scale(0.996264)"/>
     <use xlink:href="#CMBX12-65" transform="translate(382.593382 0)scale(0.996264)"/>
     <use xlink:href="#CMBX12-61" transform="translate(433.732649 0)scale(0.996264)"/>
     <use xlink:href="#CMBX12-72" transform="translate(488.215837 0)scale(0.996264)"/>
     <use xlink:href="#CMBX12-73" transform="translate(533.993344 0)scale(0.996264)"/>
    </g>
   </g>
   <g id="text_14">
    <!-- $C=\textbf{2 years}$ -->
    <g style="fill: #1f77b4" transform="translate(301.443652 164.844)scale(0.21 -0.21)">
     <defs>
      <path id="CMMI12-43" d="M 4781 4422 
C 4781 4480 4736 4480 4723 4480 
C 4710 4480 4685 4480 4634 4415 
L 4192 3881 
C 3968 4262 3616 4480 3136 4480 
C 1754 4480 320 3087 320 1594 
C 320 533 1069 -128 2003 -128 
C 2515 -128 2963 89 3334 400 
C 3891 864 4058 1480 4058 1531 
C 4058 1588 4006 1588 3987 1588 
C 3930 1588 3923 1550 3910 1524 
C 3616 533 2752 57 2112 57 
C 1434 57 845 489 845 1391 
C 845 1594 909 2699 1632 3531 
C 1984 3938 2586 4294 3194 4294 
C 3898 4294 4211 3716 4211 3068 
C 4211 2903 4192 2763 4192 2737 
C 4192 2680 4256 2680 4275 2680 
C 4346 2680 4352 2687 4378 2801 
L 4781 4422 
z
" transform="scale(0.015625)"/>
      <path id="CMBX12-32" d="M 3232 1378 
L 2963 1378 
C 2944 1243 2899 864 2803 800 
C 2752 755 2253 755 2157 755 
L 1165 755 
C 1408 960 1990 1448 2086 1519 
C 2797 2052 3232 2379 3232 2995 
C 3232 3759 2547 4224 1702 4224 
C 979 4224 358 3806 358 3187 
C 358 2848 634 2752 781 2752 
C 979 2752 1210 2886 1210 3180 
C 1210 3449 1011 3584 813 3610 
C 1069 3921 1408 3948 1542 3948 
C 2131 3948 2413 3449 2413 2988 
C 2413 2488 2074 2026 1811 1750 
L 422 294 
C 358 236 358 224 358 108 
L 358 0 
L 3046 0 
L 3232 1378 
z
" transform="scale(0.015625)"/>
     </defs>
     <use xlink:href="#CMMI12-43" transform="scale(0.996264)"/>
     <use xlink:href="#CMR17-3d" transform="translate(104.620855 0)scale(0.996264)"/>
     <use xlink:href="#CMBX12-32" transform="translate(204.009653 0)scale(0.996264)"/>
     <use xlink:href="#CMBX12-79" transform="translate(297.409403 0)scale(0.996264)"/>
     <use xlink:href="#CMBX12-65" transform="translate(353.449254 0)scale(0.996264)"/>
     <use xlink:href="#CMBX12-61" transform="translate(404.588521 0)scale(0.996264)"/>
     <use xlink:href="#CMBX12-72" transform="translate(459.071709 0)scale(0.996264)"/>
     <use xlink:href="#CMBX12-73" transform="translate(504.849217 0)scale(0.996264)"/>
    </g>
   </g>
   <g id="text_15">
    <!-- $C=\textbf{3 years}$ -->
    <g style="fill: #1f77b4" transform="translate(413.043652 77.868)scale(0.21 -0.21)">
     <defs>
      <path id="CMBX12-33" d="M 1670 2143 
C 2387 2143 2387 1473 2387 1164 
C 2387 876 2387 192 1696 192 
C 1562 192 1139 211 832 434 
C 1107 492 1203 691 1203 883 
C 1203 1145 1018 1331 755 1331 
C 486 1331 301 1145 301 876 
C 301 283 941 -64 1728 -64 
C 2784 -64 3290 524 3290 1164 
C 3290 1479 3130 2092 2138 2265 
C 2701 2436 3091 2824 3091 3327 
C 3091 3812 2630 4224 1741 4224 
C 1024 4224 499 3839 499 3315 
C 499 2995 749 2892 915 2892 
C 1101 2892 1325 3014 1325 3308 
C 1325 3455 1261 3673 960 3718 
C 1229 3993 1664 3993 1702 3993 
C 2272 3993 2272 3539 2272 3347 
C 2272 3155 2246 2861 2042 2605 
C 1875 2392 1709 2380 1466 2368 
C 1389 2361 1261 2355 1235 2342 
C 1197 2323 1197 2278 1197 2252 
C 1197 2143 1235 2143 1363 2143 
L 1670 2143 
z
" transform="scale(0.015625)"/>
     </defs>
     <use xlink:href="#CMMI12-43" transform="scale(0.996264)"/>
     <use xlink:href="#CMR17-3d" transform="translate(104.620855 0)scale(0.996264)"/>
     <use xlink:href="#CMBX12-33" transform="translate(204.009653 0)scale(0.996264)"/>
     <use xlink:href="#CMBX12-79" transform="translate(297.409403 0)scale(0.996264)"/>
     <use xlink:href="#CMBX12-65" transform="translate(353.449254 0)scale(0.996264)"/>
     <use xlink:href="#CMBX12-61" transform="translate(404.588521 0)scale(0.996264)"/>
     <use xlink:href="#CMBX12-72" transform="translate(459.071709 0)scale(0.996264)"/>
     <use xlink:href="#CMBX12-73" transform="translate(504.849217 0)scale(0.996264)"/>
    </g>
   </g>
   <g id="legend_1">
    <g id="patch_7">
     <path d="M 533.645045 64.598952 
L 647.363652 64.598952 
Q 650.563652 64.598952 650.563652 61.398952 
L 650.563652 18.4 
Q 650.563652 15.2 647.363652 15.2 
L 533.645045 15.2 
Q 530.445045 15.2 530.445045 18.4 
L 530.445045 61.398952 
Q 530.445045 64.598952 533.645045 64.598952 
z
" style="fill: #ffffff; opacity: 0.8; stroke: #cccccc; stroke-linejoin: miter"/>
    </g>
    <g id="PathCollection_1">
     <defs>
      <path id="m3c8da99d31" d="M -3.535534 7.071068 
L 0 3.535534 
L 3.535534 7.071068 
L 7.071068 3.535534 
L 3.535534 0 
L 7.071068 -3.535534 
L 3.535534 -7.071068 
L 0 -3.535534 
L -3.535534 -7.071068 
L -7.071068 -3.535534 
L -3.535534 0 
L -7.071068 3.535534 
z
" style="stroke: #d62728; stroke-width: 2.5"/>
     </defs>
     <g>
      <use xlink:href="#m3c8da99d31" x="552.845045" y="28.6" style="fill: #ffffff; stroke: #d62728; stroke-width: 2.5"/>
     </g>
    </g>
    <g id="text_16">
     <!-- Death -->
     <g transform="translate(581.645045 32.8)scale(0.16 -0.16)">
      <defs>
       <path id="CMR17-44" d="M 333 4352 
L 333 4185 
C 774 4185 845 4185 845 3898 
L 845 453 
C 845 166 774 166 333 166 
L 333 0 
L 2368 0 
C 3398 0 4224 943 4224 2140 
C 4224 3344 3411 4352 2368 4352 
L 333 4352 
z
M 1523 166 
C 1267 166 1254 198 1254 414 
L 1254 3936 
C 1254 4153 1267 4185 1523 4185 
L 2240 4185 
C 2771 4185 3750 3873 3750 2140 
C 3750 1242 3488 879 3366 707 
C 3213 510 2848 166 2240 166 
L 1523 166 
z
" transform="scale(0.015625)"/>
       <path id="CMR17-65" d="M 2438 1503 
C 2464 1529 2464 1542 2464 1606 
C 2464 2251 2118 2816 1389 2816 
C 710 2816 173 2175 173 1394 
C 173 554 781 -64 1459 -64 
C 2176 -64 2458 619 2458 755 
C 2458 800 2419 800 2406 800 
C 2362 800 2355 787 2330 709 
C 2189 270 1837 51 1504 51 
C 1229 51 954 206 781 490 
C 582 819 582 1200 582 1503 
L 2438 1503 
z
M 589 1600 
C 634 2511 1126 2713 1382 2713 
C 1818 2713 2112 2308 2118 1600 
L 589 1600 
z
" transform="scale(0.015625)"/>
       <path id="CMR17-61" d="M 2304 1656 
C 2304 2048 2304 2275 2035 2534 
C 1798 2751 1523 2816 1306 2816 
C 800 2816 435 2408 435 1977 
C 435 1740 627 1728 666 1728 
C 749 1728 896 1779 896 1958 
C 896 2118 774 2188 666 2188 
C 640 2188 608 2182 589 2176 
C 723 2594 1069 2713 1293 2713 
C 1613 2713 1965 2421 1965 1875 
L 1965 1632 
C 1587 1619 1133 1568 774 1373 
C 371 1147 256 822 256 576 
C 256 77 832 -64 1171 -64 
C 1523 -64 1850 135 1990 505 
C 2003 219 2182 -39 2464 -39 
C 2598 -39 2938 51 2938 563 
L 2938 926 
L 2822 926 
L 2822 557 
C 2822 161 2650 109 2566 109 
C 2304 109 2304 446 2304 732 
L 2304 1656 
z
M 1965 887 
C 1965 323 1568 38 1216 38 
C 896 38 646 278 646 576 
C 646 771 730 1114 1101 1322 
C 1408 1497 1760 1523 1965 1536 
L 1965 887 
z
" transform="scale(0.015625)"/>
       <path id="CMR17-74" d="M 966 2585 
L 1862 2585 
L 1862 2752 
L 966 2752 
L 966 3968 
L 851 3968 
C 838 3292 614 2700 70 2687 
L 70 2585 
L 627 2585 
L 627 778 
C 627 655 627 -64 1370 -64 
C 1747 -64 1965 308 1965 784 
L 1965 1151 
L 1850 1151 
L 1850 790 
C 1850 347 1677 51 1408 51 
C 1222 51 966 179 966 765 
L 966 2585 
z
" transform="scale(0.015625)"/>
       <path id="CMR17-68" d="M 2656 1954 
C 2656 2282 2592 2816 1837 2816 
C 1312 2816 1056 2392 979 2179 
L 973 2179 
L 973 4416 
L 211 4345 
L 211 4179 
C 589 4179 646 4141 646 3843 
L 646 443 
C 646 198 621 166 211 166 
L 211 0 
C 365 12 646 12 813 12 
C 979 12 1267 12 1421 0 
L 1421 166 
C 1011 166 986 192 986 443 
L 986 1678 
C 986 2269 1344 2713 1792 2713 
C 2266 2713 2317 2289 2317 1980 
L 2317 443 
C 2317 198 2291 166 1882 166 
L 1882 0 
C 2035 12 2317 12 2483 12 
C 2650 12 2938 12 3091 0 
L 3091 166 
C 2682 166 2656 192 2656 443 
L 2656 1954 
z
" transform="scale(0.015625)"/>
      </defs>
      <use xlink:href="#CMR17-44" transform="scale(0.996264)"/>
      <use xlink:href="#CMR17-65" transform="translate(70.393556 0)scale(0.996264)"/>
      <use xlink:href="#CMR17-61" transform="translate(110.879216 0)scale(0.996264)"/>
      <use xlink:href="#CMR17-74" transform="translate(156.569693 0)scale(0.996264)"/>
      <use xlink:href="#CMR17-68" transform="translate(191.850461 0)scale(0.996264)"/>
     </g>
    </g>
    <g id="PathCollection_2">
     <defs>
      <path id="m251061d9f1" d="M -5.477226 5.477226 
L 5.477226 5.477226 
L 5.477226 -5.477226 
L -5.477226 -5.477226 
z
" style="stroke: #1f77b4; stroke-width: 2.5"/>
     </defs>
     <g>
      <use xlink:href="#m251061d9f1" x="552.845045" y="50.899476" style="fill: #ffffff; stroke: #1f77b4; stroke-width: 2.5"/>
     </g>
    </g>
    <g id="text_17">
     <!-- Censored -->
     <g transform="translate(581.645045 55.099476)scale(0.16 -0.16)">
      <defs>
       <path id="CMR17-43" d="M 3974 4351 
C 3974 4467 3968 4473 3930 4473 
C 3904 4473 3898 4467 3853 4390 
L 3571 3849 
C 3258 4249 2874 4480 2381 4480 
C 1286 4480 294 3507 294 2179 
C 294 837 1286 -128 2387 -128 
C 3366 -128 3974 741 3974 1482 
C 3974 1547 3974 1573 3917 1573 
C 3866 1573 3866 1553 3859 1495 
C 3808 592 3168 38 2477 38 
C 1824 38 781 502 781 2179 
C 781 3862 1843 4313 2464 4313 
C 3187 4313 3712 3681 3834 2785 
C 3846 2707 3846 2695 3904 2695 
C 3974 2695 3974 2707 3974 2824 
L 3974 4351 
z
" transform="scale(0.015625)"/>
       <path id="CMR17-6e" d="M 2656 1954 
C 2656 2282 2592 2816 1837 2816 
C 1331 2816 1069 2424 973 2166 
L 966 2166 
L 966 2816 
L 211 2745 
L 211 2578 
C 589 2578 646 2540 646 2231 
L 646 443 
C 646 198 621 166 211 166 
L 211 0 
C 365 12 646 12 813 12 
C 979 12 1267 12 1421 0 
L 1421 166 
C 1011 166 986 192 986 443 
L 986 1678 
C 986 2269 1344 2713 1792 2713 
C 2266 2713 2317 2289 2317 1980 
L 2317 443 
C 2317 198 2291 166 1882 166 
L 1882 0 
C 2035 12 2317 12 2483 12 
C 2650 12 2938 12 3091 0 
L 3091 166 
C 2682 166 2656 192 2656 443 
L 2656 1954 
z
" transform="scale(0.015625)"/>
       <path id="CMR17-73" d="M 1978 2688 
C 1978 2803 1971 2809 1933 2809 
C 1907 2809 1901 2803 1824 2707 
C 1805 2681 1747 2617 1728 2592 
C 1523 2809 1235 2816 1126 2816 
C 416 2816 160 2444 160 2073 
C 160 1497 813 1363 998 1324 
C 1402 1241 1542 1216 1677 1100 
C 1760 1024 1901 883 1901 652 
C 1901 384 1747 38 1158 38 
C 602 38 403 460 288 1024 
C 269 1113 269 1120 218 1120 
C 166 1120 160 1113 160 985 
L 160 64 
C 160 -52 166 -58 205 -58 
C 237 -58 243 -52 275 0 
C 314 57 410 211 448 275 
C 576 102 800 -64 1158 -64 
C 1792 -64 2131 281 2131 780 
C 2131 1107 1958 1280 1875 1356 
C 1683 1555 1459 1600 1190 1651 
C 838 1728 390 1817 390 2208 
C 390 2374 480 2726 1126 2726 
C 1811 2726 1850 2086 1862 1881 
C 1869 1849 1901 1843 1920 1843 
C 1978 1843 1978 1862 1978 1971 
L 1978 2688 
z
" transform="scale(0.015625)"/>
       <path id="CMR17-6f" d="M 2758 1356 
C 2758 2176 2163 2816 1466 2816 
C 768 2816 173 2176 173 1356 
C 173 550 768 -64 1466 -64 
C 2163 -64 2758 550 2758 1356 
z
M 1466 51 
C 1165 51 909 230 762 480 
C 602 768 582 1126 582 1408 
C 582 1676 595 2009 762 2297 
C 890 2508 1139 2713 1466 2713 
C 1754 2713 1997 2553 2150 2329 
C 2349 2028 2349 1606 2349 1408 
C 2349 1158 2336 774 2163 467 
C 1984 172 1709 51 1466 51 
z
" transform="scale(0.015625)"/>
       <path id="CMR17-72" d="M 960 1517 
C 960 2134 1222 2713 1702 2713 
C 1747 2713 1792 2707 1837 2687 
C 1837 2687 1696 2642 1696 2475 
C 1696 2321 1818 2257 1914 2257 
C 1990 2257 2131 2302 2131 2482 
C 2131 2687 1926 2816 1709 2816 
C 1222 2816 1011 2340 947 2115 
L 941 2115 
L 941 2816 
L 198 2745 
L 198 2578 
C 576 2578 634 2540 634 2231 
L 634 443 
C 634 198 608 166 198 166 
L 198 0 
C 352 12 646 12 813 12 
C 998 12 1325 12 1498 0 
L 1498 166 
C 1037 166 960 166 960 455 
L 960 1517 
z
" transform="scale(0.015625)"/>
       <path id="CMR17-64" d="M 1869 4345 
L 1869 4179 
C 2246 4179 2304 4141 2304 3843 
L 2304 2371 
C 2278 2403 2016 2816 1498 2816 
C 845 2816 211 2228 211 1376 
C 211 529 806 -64 1434 -64 
C 1978 -64 2259 361 2291 406 
L 2291 -64 
L 3066 -13 
L 3066 154 
C 2688 154 2630 193 2630 503 
L 2630 4416 
L 1869 4345 
z
M 2291 762 
C 2291 568 2176 393 2029 264 
C 1811 70 1594 38 1472 38 
C 1286 38 621 135 621 1369 
C 621 2636 1363 2713 1530 2713 
C 1824 2713 2061 2545 2208 2313 
C 2291 2177 2291 2157 2291 2041 
L 2291 762 
z
" transform="scale(0.015625)"/>
      </defs>
      <use xlink:href="#CMR17-43" transform="scale(0.996264)"/>
      <use xlink:href="#CMR17-65" transform="translate(66.509881 0)scale(0.996264)"/>
      <use xlink:href="#CMR17-6e" transform="translate(106.995541 0)scale(0.996264)"/>
      <use xlink:href="#CMR17-73" transform="translate(157.890911 0)scale(0.996264)"/>
      <use xlink:href="#CMR17-6f" transform="translate(193.692248 0)scale(0.996264)"/>
      <use xlink:href="#CMR17-72" transform="translate(239.382726 0)scale(0.996264)"/>
      <use xlink:href="#CMR17-65" transform="translate(274.663493 0)scale(0.996264)"/>
      <use xlink:href="#CMR17-64" transform="translate(315.149154 0)scale(0.996264)"/>
     </g>
    </g>
   </g>
   <g id="PathCollection_3">
    <g clip-path="url(#p42cc66f12a)">
     <use xlink:href="#m3c8da99d31" x="212.163652" y="50.688" style="fill: #ffffff; stroke: #d62728; stroke-width: 2.5"/>
    </g>
   </g>
   <g id="PathCollection_4">
    <defs>
     <path id="m1a1cec16f5" d="M -5 -7.5 
L 0 0 
L 5 -7.5 
" style="stroke: #d62728; stroke-width: 2.5"/>
    </defs>
    <g clip-path="url(#p42cc66f12a)">
     <use xlink:href="#m1a1cec16f5" x="212.163652" y="224.64" style="fill: #d62728; stroke: #d62728; stroke-width: 2.5"/>
    </g>
   </g>
   <g id="PathCollection_5">
    <g clip-path="url(#p42cc66f12a)">
     <use xlink:href="#m3c8da99d31" x="546.963652" y="137.664" style="fill: #ffffff; stroke: #d62728; stroke-width: 2.5"/>
    </g>
   </g>
   <g id="PathCollection_6">
    <g clip-path="url(#p42cc66f12a)">
     <use xlink:href="#m1a1cec16f5" x="546.963652" y="224.64" style="fill: #d62728; stroke: #d62728; stroke-width: 2.5"/>
    </g>
   </g>
   <g id="PathCollection_7">
    <g clip-path="url(#p42cc66f12a)">
     <use xlink:href="#m251061d9f1" x="323.763652" y="181.152" style="fill: #ffffff; stroke: #1f77b4; stroke-width: 2.5"/>
    </g>
   </g>
   <g id="PathCollection_8">
    <defs>
     <path id="meec26a1cd2" d="M -5 -7.5 
L 0 0 
L 5 -7.5 
" style="stroke: #1f77b4; stroke-width: 2.5"/>
    </defs>
    <g clip-path="url(#p42cc66f12a)">
     <use xlink:href="#meec26a1cd2" x="323.763652" y="224.64" style="fill: #1f77b4; stroke: #1f77b4; stroke-width: 2.5"/>
    </g>
   </g>
   <g id="PathCollection_9">
    <g clip-path="url(#p42cc66f12a)">
     <use xlink:href="#m251061d9f1" x="435.363652" y="94.176" style="fill: #ffffff; stroke: #1f77b4; stroke-width: 2.5"/>
    </g>
   </g>
   <g id="PathCollection_10">
    <g clip-path="url(#p42cc66f12a)">
     <use xlink:href="#meec26a1cd2" x="435.363652" y="224.64" style="fill: #1f77b4; stroke: #1f77b4; stroke-width: 2.5"/>
    </g>
   </g>
  </g>
 </g>
 <defs>
  <clipPath id="p42cc66f12a">
   <rect x="100.563652" y="7.2" width="558" height="217.44"/>
  </clipPath>
 </defs>
</svg>
